<svg xmlns="http://www.w3.org/2000/svg" width="1200" height="300" viewBox="0 0 1200 300" role="img" aria-label="Samet Akcay - Principal AI Engineer at Intel">
<defs>
<linearGradient id="acc" x1="0" y1="0" x2="0" y2="1"><stop offset="0%" stop-color="#0EA5E9"/><stop offset="100%" stop-color="#6366F1"/></linearGradient>
<linearGradient id="rule" x1="0" y1="0" x2="1" y2="0"><stop offset="0%" stop-color="#0EA5E9" stop-opacity="0.9"/><stop offset="55%" stop-color="#6366F1" stop-opacity="0.35"/><stop offset="100%" stop-color="#6366F1" stop-opacity="0"/></linearGradient>
<radialGradient id="glow"><stop offset="0%" stop-color="#6366F1" stop-opacity="0.30"/><stop offset="100%" stop-color="#6366F1" stop-opacity="0"/></radialGradient>
</defs>
<rect x="40" y="70" width="4" height="160" rx="2" fill="url(#acc)"/>
<text x="76" y="122" font-family="ui-sans-serif,-apple-system,BlinkMacSystemFont,'Segoe UI',Inter,Helvetica,Arial,sans-serif" font-size="54" font-weight="700" letter-spacing="-1.2" fill="#0F172A">Samet Akcay</text>
<text x="78" y="160" font-family="ui-sans-serif,-apple-system,BlinkMacSystemFont,'Segoe UI',Inter,Helvetica,Arial,sans-serif" font-size="21" font-weight="500" fill="#475569">Principal AI Engineer at Intel</text>
<rect x="78" y="184" width="430" height="2" rx="1" fill="url(#rule)"/>
<text x="78" y="218" font-family="ui-sans-serif,-apple-system,BlinkMacSystemFont,'Segoe UI',Inter,Helvetica,Arial,sans-serif" font-size="14.5" font-weight="600" letter-spacing="2.4" fill="#64748B">PHYSICAL AI &#183; ANOMALY DETECTION &#183; EDGE AI</text>
<g>
<circle cx="1013.3" cy="124.5" r="3.07" fill="#CBD5E1"/>
<circle cx="974.7" cy="136.9" r="2.89" fill="#CBD5E1"/>
<circle cx="1039.0" cy="115.8" r="2.80" fill="#CBD5E1"/>
<circle cx="966.0" cy="177.0" r="3.39" fill="#CBD5E1"/>
<circle cx="978.3" cy="165.9" r="3.33" fill="#CBD5E1"/>
<circle cx="894.7" cy="156.4" r="2.44" fill="#CBD5E1"/>
<circle cx="856.8" cy="168.6" r="3.13" fill="#CBD5E1"/>
<circle cx="909.5" cy="150.6" r="2.80" fill="#CBD5E1"/>
<circle cx="962.0" cy="152.9" r="2.27" fill="#CBD5E1"/>
<circle cx="917.4" cy="127.0" r="2.97" fill="#CBD5E1"/>
<circle cx="1030.9" cy="156.9" r="3.20" fill="#CBD5E1"/>
<circle cx="943.7" cy="171.7" r="2.02" fill="#CBD5E1"/>
<circle cx="993.4" cy="182.8" r="2.84" fill="#CBD5E1"/>
<circle cx="884.2" cy="120.8" r="2.61" fill="#CBD5E1"/>
<circle cx="1007.8" cy="209.3" r="3.21" fill="#CBD5E1"/>
<circle cx="885.1" cy="136.7" r="2.16" fill="#CBD5E1"/>
<circle cx="951.3" cy="137.5" r="3.24" fill="#CBD5E1"/>
<circle cx="895.0" cy="194.5" r="3.33" fill="#CBD5E1"/>
<circle cx="831.7" cy="140.4" r="2.08" fill="#CBD5E1"/>
<circle cx="1027.2" cy="172.1" r="2.13" fill="#CBD5E1"/>
<circle cx="910.0" cy="186.2" r="3.24" fill="#CBD5E1"/>
<circle cx="1012.7" cy="96.2" r="2.42" fill="#CBD5E1"/>
<circle cx="914.1" cy="210.8" r="2.52" fill="#CBD5E1"/>
<circle cx="996.1" cy="144.3" r="3.17" fill="#CBD5E1"/>
<circle cx="797.1" cy="137.6" r="2.77" fill="#CBD5E1"/>
<circle cx="1031.1" cy="140.1" r="2.25" fill="#CBD5E1"/>
<circle cx="1076.8" cy="199.8" r="2.06" fill="#CBD5E1"/>
<circle cx="934.8" cy="108.4" r="2.57" fill="#CBD5E1"/>
<circle cx="869.1" cy="126.4" r="2.50" fill="#CBD5E1"/>
<circle cx="930.9" cy="159.4" r="2.92" fill="#CBD5E1"/>
<circle cx="931.9" cy="203.9" r="3.30" fill="#CBD5E1"/>
<circle cx="1040.3" cy="183.1" r="2.45" fill="#CBD5E1"/>
<circle cx="876.4" cy="174.0" r="2.98" fill="#CBD5E1"/>
<circle cx="877.2" cy="151.2" r="2.18" fill="#CBD5E1"/>
<circle cx="869.6" cy="100.7" r="2.68" fill="#CBD5E1"/>
<circle cx="853.6" cy="201.8" r="3.39" fill="#CBD5E1"/>
<circle cx="903.2" cy="116.0" r="3.05" fill="#CBD5E1"/>
<circle cx="1023.0" cy="194.7" r="2.79" fill="#CBD5E1"/>
<circle cx="1002.4" cy="159.3" r="3.00" fill="#CBD5E1"/>
<circle cx="796.9" cy="187.3" r="2.64" fill="#CBD5E1"/>
<circle cx="892.6" cy="102.2" r="2.68" fill="#CBD5E1"/>
<circle cx="947.7" cy="99.0" r="2.89" fill="#CBD5E1"/>
<circle cx="917.4" cy="90.1" r="2.29" fill="#CBD5E1"/>
<circle cx="977.1" cy="203.4" r="2.96" fill="#CBD5E1"/>
<circle cx="991.8" cy="101.1" r="2.13" fill="#CBD5E1"/>
<circle cx="1093.5" cy="131.9" r="2.16" fill="#CBD5E1"/>
<circle cx="849.0" cy="141.2" r="3.26" fill="#CBD5E1"/>
<circle cx="841.0" cy="125.8" r="2.25" fill="#CBD5E1"/>
<circle cx="825.4" cy="170.5" r="2.00" fill="#CBD5E1"/>
<circle cx="1069.9" cy="141.7" r="3.38" fill="#CBD5E1"/>
<circle cx="925.7" cy="177.0" r="3.09" fill="#CBD5E1"/>
<circle cx="1038.8" cy="217.0" r="3.07" fill="#CBD5E1"/>
<circle cx="866.9" cy="187.4" r="2.03" fill="#CBD5E1"/>
<circle cx="801.1" cy="166.8" r="2.12" fill="#CBD5E1"/>
<circle cx="981.4" cy="113.6" r="3.23" fill="#CBD5E1"/>
<circle cx="1055.3" cy="164.9" r="3.28" fill="#CBD5E1"/>
<circle cx="797.1" cy="86.3" r="3.32" fill="#CBD5E1"/>
<circle cx="1071.3" cy="167.3" r="3.35" fill="#CBD5E1"/>
<circle cx="820.4" cy="111.9" r="2.44" fill="#CBD5E1"/>
<circle cx="897.0" cy="175.8" r="2.09" fill="#CBD5E1"/>
<circle cx="955.3" cy="197.0" r="2.66" fill="#CBD5E1"/>
<circle cx="850.8" cy="85.5" r="3.36" fill="#CBD5E1"/>
</g>
<circle cx="1128" cy="88" r="34" fill="url(#glow)"/>
<circle cx="1128" cy="88" r="14" fill="none" stroke="#6366F1" stroke-width="1.4" stroke-opacity="0.55"/>
<circle cx="1128" cy="88" r="5" fill="url(#acc)"/>
<path d="M 1114 102 L 1088 128" stroke="#6366F1" stroke-width="1.2" stroke-opacity="0.35"/>
</svg>